# xmcd
# Track frame offsets:
# 150
# 17298
# 34071
# 52869
# 71142
# 89265
# 110088
# 127236
# 145359
# 171507
# 195255
#
# Disc length: 2889 seconds
# Revision: 0
# Processed by: cddbd v1.5.2PL0 Copyright (c) Steve Scherf et al.
# Submitted via: VisiTrax 2.11.3.279 - For more info visit www.synapsa.com
#
DISCID=990b470b
DTITLE=Adele - Adele 21 Deluxe Edition [CD1]
DYEAR=2011
DGENRE=
TTITLE0=Rolling In The Deep
TTITLE1=Rumour Has It
TTITLE2=Turning Tables
TTITLE3=Don't You Remember
TTITLE4=Set Fire To The Rain
TTITLE5=He Won't Go
TTITLE6=Take It All
TTITLE7=I'll Be Waiting
TTITLE8=One And Only
TTITLE9=Lovesong
TTITLE10=Someone Like You
EXTD=
EXTT0=
EXTT1=
EXTT2=
EXTT3=
EXTT4=
EXTT5=
EXTT6=
EXTT7=
EXTT8=
EXTT9=
EXTT10=
PLAYORDER=
